<mxfile host="app.diagrams.net" modified="2024-04-19T04:03:17.699Z" agent="Mozilla/5.0 (Macintosh; Intel Mac OS X 10_15_7) AppleWebKit/537.36 (KHTML, like Gecko) Chrome/123.0.0.0 Safari/537.36" version="24.2.5" etag="LTRW4oT1kWXIG5ztVujW" type="github">
  <diagram name="Page-1" id="StnRL3DEAgVb8WGMYoGq">
    <mxGraphModel>
      <root>
        <mxCell id="0" />
        <mxCell id="1" parent="0" />
      </root>
    </mxGraphModel>
  </diagram>
</mxfile>
